<?xml version="1.0" encoding="UTF-8" standalone="no"?>
<!-- Created with Inkscape (http://www.inkscape.org/) -->

<svg
   xmlns:dc="http://purl.org/dc/elements/1.1/"
   xmlns:cc="http://creativecommons.org/ns#"
   xmlns:rdf="http://www.w3.org/1999/02/22-rdf-syntax-ns#"
   xmlns:svg="http://www.w3.org/2000/svg"
   xmlns="http://www.w3.org/2000/svg"
   xmlns:sodipodi="http://sodipodi.sourceforge.net/DTD/sodipodi-0.dtd"
   xmlns:inkscape="http://www.inkscape.org/namespaces/inkscape"
   width="96.75206mm"
   height="14.507986mm"
   viewBox="0 0 96.75206 14.507986"
   version="1.1"
   id="svg8"
   inkscape:version="0.92.1 r"
   sodipodi:docname="logotype.svg"
   inkscape:export-filename="/home/danpixl/Projects/Creamsicle/png/logotyperaw.png"
   inkscape:export-xdpi="236.27403"
   inkscape:export-ydpi="236.27403">
  <defs
     id="defs2" />
  <sodipodi:namedview
     id="base"
     pagecolor="#ffffff"
     bordercolor="#666666"
     borderopacity="1.0"
     inkscape:pageopacity="0.0"
     inkscape:pageshadow="2"
     inkscape:zoom="1.354145"
     inkscape:cx="188.01064"
     inkscape:cy="25.902382"
     inkscape:document-units="mm"
     inkscape:current-layer="layer1"
     showgrid="false"
     fit-margin-top="0"
     fit-margin-left="0"
     fit-margin-right="0"
     fit-margin-bottom="0"
     inkscape:snap-global="true"
     inkscape:measure-start="40.0342,39.8244"
     inkscape:measure-end="49.5238,39.8244"
     inkscape:window-width="1600"
     inkscape:window-height="858"
     inkscape:window-x="0"
     inkscape:window-y="42"
     inkscape:window-maximized="1" />
  <metadata
     id="metadata5">
    <rdf:RDF>
      <cc:Work
         rdf:about="">
        <dc:format>image/svg+xml</dc:format>
        <dc:type
           rdf:resource="http://purl.org/dc/dcmitype/StillImage" />
        <dc:title></dc:title>
      </cc:Work>
    </rdf:RDF>
  </metadata>
  <g
     inkscape:label="Layer 1"
     inkscape:groupmode="layer"
     id="layer1"
     transform="translate(302.92823,-114.10756)">
    <text
       xml:space="preserve"
       style="font-style:normal;font-weight:normal;font-size:10.58333302px;line-height:1.25;font-family:sans-serif;letter-spacing:0px;word-spacing:0px;fill:#000000;fill-opacity:1;stroke:none;stroke-width:0.26458332"
       x="-303.89285"
       y="128.42262"
       id="text4487"><tspan
         sodipodi:role="line"
         id="tspan4485"
         x="-303.89285"
         y="128.42262"
         style="font-style:normal;font-variant:normal;font-weight:900;font-stretch:normal;font-size:19.75555611px;line-height:0;font-family:'Hallo sans';-inkscape-font-specification:'Hallo sans Heavy';fill:#fcb836;fill-opacity:1;stroke-width:0.26458332">DREAMSICLE</tspan></text>
    <path
       style="fill:none;stroke:#fcb836;stroke-width:2.23835015;stroke-linecap:butt;stroke-linejoin:miter;stroke-miterlimit:4;stroke-dasharray:none;stroke-opacity:1"
       d="m -290.07749,119.66637 c 0.22884,-2.78977 0.37187,-2.93922 0.37187,-2.93922 l 1.08702,0.34871 h 0.40048 l -0.11443,3.03886 -1.68773,0.34872 z"
       id="path17"
       inkscape:connector-curvature="0" />
    <path
       style="fill:none;stroke:#fcb836;stroke-width:2.11199999;stroke-linecap:butt;stroke-linejoin:miter;stroke-miterlimit:4;stroke-dasharray:none;stroke-opacity:1"
       d="m -270.71229,121.9741 c 1.05344,0 2.10688,0 3.16032,0 -0.24899,-0.005 -0.16115,-0.25228 -0.32693,-0.31151 -0.0751,-0.0269 -0.0488,0.0471 -0.10897,-0.0389 -0.008,-0.0116 0.008,-0.0273 0,-0.0389 -0.0115,-0.0164 -0.0455,-0.0218 -0.0545,-0.0389 -0.44244,-0.84312 0.42612,0.5666 -0.32693,-0.77876 -0.0191,-0.0341 -0.0949,-0.0425 -0.10898,-0.0779 -0.0249,-0.0624 0,-0.12979 0,-0.19469 0,-0.013 0.0129,-0.0298 0,-0.0389 -0.0129,-0.009 -0.0417,0.009 -0.0545,0 -0.0256,-0.0183 0.0162,-0.0547 0,-0.0779 -0.0115,-0.0164 -0.0363,-0.026 -0.0545,-0.0389 -0.0545,-0.12979 -0.084,-0.26634 -0.16346,-0.38938 -0.13972,-0.21633 -0.29221,-0.43139 -0.49039,-0.623 -0.11476,-0.11095 -0.2924,-0.18027 -0.4359,-0.27257 -0.0382,-0.0246 -0.0662,-0.0575 -0.10898,-0.0779 -0.0151,-0.007 -0.0727,0 -0.0545,0 0.38142,0 0.76284,0 1.14426,0 0.0727,0 0.1453,0 0.21795,0 0.0181,0 0.0727,0 0.0545,0 -0.24986,0 0.0575,-0.008 -0.27244,0.0389 -0.0866,0.0124 -0.11725,-0.0271 -0.16347,0.0389 -0.006,0.009 0,0.1465 0,0.15576 0,0.0779 0,0.15575 0,0.23362 0,0.013 0,0.026 0,0.0389 0,0.013 0.0129,0.0297 0,0.0389 -0.0129,0.009 -0.0363,0 -0.0545,0 -0.10897,0 -0.21794,0 -0.32692,0 -1.11148,0.35291 -0.12684,-0.01 -0.65395,0.27255 -0.0847,0.0454 -0.18627,0.0728 -0.27245,0.11681 -0.0418,0.0213 -0.063,0.0615 -0.10897,0.0779 -0.0166,0.006 -0.24262,0.0139 -0.27245,0.0779 -0.01,0.0209 0,0.12278 0,0.15574 0,0.0909 0,0.18172 0,0.27257 0,0.29853 0,0.59705 0,0.89557 0,0.15576 0,0.31151 0,0.46726 0,0.009 0.006,0.11532 0,0.11682 -0.0516,0.0123 -0.10897,0 -0.16346,0 z"
       id="path824"
       inkscape:connector-curvature="0" />
    <path
       style="fill:#fcb836;fill-opacity:1;stroke:#fcb836;stroke-width:2.21200013;stroke-miterlimit:4;stroke-dasharray:none;stroke-opacity:1"
       id="path5049"
       d="m -299.896,126.482 c 0.002,-0.66913 0.24931,-1.29809 0.49358,-1.91034 0.31022,-0.63152 0.54178,-1.29039 0.6922,-1.97673 0.0868,-0.38789 0.10008,-0.78315 0.10599,-1.17879 -0.15005,-1.48575 -0.56351,-2.9297 -0.99977,-4.35271 0,0 1.07491,-0.58631 1.07491,-0.58631 v 0 c 0.39062,1.44067 0.77142,2.88595 1.08139,4.34618 0.007,0.10847 0.0318,0.41844 0.0287,0.56318 -0.005,0.21442 -0.073,0.42694 -0.10456,0.63724 -0.16617,0.69101 -0.3787,1.36779 -0.70098,2.00424 -0.24339,0.58235 -0.51103,1.19691 -0.46809,1.84092 0,0 -1.20333,0.61312 -1.20333,0.61312 z"
       inkscape:connector-curvature="0" />
    <path
       style="fill:#fcb836;fill-opacity:1;stroke:#fcb836;stroke-width:2.21200013;stroke-miterlimit:4;stroke-dasharray:none;stroke-opacity:1"
       id="path5051"
       d="m -297.38553,125.3068 c -0.23889,-0.52412 -0.44243,-1.06364 -0.69038,-1.58383 -0.16866,-0.35382 -0.3538,-0.69955 -0.53088,-1.04924 -0.25958,-0.47831 -0.55872,-0.9347 -0.90696,-1.35334 -0.23003,-0.27653 -0.48912,-0.52428 -0.74548,-0.77557 -0.15533,-0.17734 -0.36377,-0.32786 -0.44941,-0.55493 -0.006,-0.0169 -0.0115,-0.0337 -0.0172,-0.0506 0,0 1.18494,-0.65547 1.18494,-0.65547 v 0 c 0.007,0.0179 0.0132,0.0359 0.0197,0.0538 0.0498,0.21108 0.26683,0.3528 0.38372,0.52188 0.62182,0.66929 1.21,1.3676 1.6231,2.19079 0.20921,0.40298 0.33861,0.64659 0.53741,1.05119 0.21342,0.43436 0.40428,0.88152 0.62801,1.31074 0.0399,0.0765 0.0858,0.14961 0.1287,0.22441 0,0 -1.16527,0.6702 -1.16527,0.6702 z"
       inkscape:connector-curvature="0" />
    <path
       style="fill:#fcb836;fill-opacity:1;stroke:#fcb836;stroke-width:2.21200013;stroke-miterlimit:4;stroke-dasharray:none;stroke-opacity:1"
       id="path5055"
       d="m -300.78187,126.08504 c 0.24434,-0.58771 0.44075,-1.19353 0.62024,-1.80368 0.13538,-0.46486 0.22402,-0.93996 0.26179,-1.42222 0.0236,-0.43033 0.0219,-0.86169 0.0188,-1.29251 -6.1e-4,-0.33354 -0.006,-0.66704 -0.0116,-1.00053 -0.001,-0.0952 -0.002,-0.19036 -0.002,-0.28555 0,0 1.20108,-0.6121 1.20108,-0.6121 v 0 c -2.9e-4,0.0958 -5.8e-4,0.19152 -0.002,0.28727 -0.004,0.33627 -0.007,0.67256 -0.005,1.00885 -3.4e-4,0.43317 0.008,0.86661 -0.01,1.29955 -0.0351,0.49666 -0.13227,0.98305 -0.27662,1.46 -0.17361,0.60314 -0.37182,1.19825 -0.57309,1.79259 0,0 -1.22188,0.56833 -1.22188,0.56833 z"
       inkscape:connector-curvature="0" />
    <path
       style="fill:#fcb836;fill-opacity:1;stroke:#fcb836;stroke-width:2.21200013;stroke-miterlimit:4;stroke-dasharray:none;stroke-opacity:1"
       id="path5061"
       d="m -299.80508,120.75391 c 0.007,-0.29426 0.006,-0.58867 0.008,-0.88301 0.006,-0.50661 0.009,-1.01323 0.009,-1.51988 0.002,-0.34418 -0.0164,-0.68797 0.0115,-1.03137 0,0 1.19986,-0.59519 1.19986,-0.59519 v 0 c -0.0462,0.34193 -0.0416,0.68515 -0.0403,1.02984 -2.1e-4,0.50374 0.002,1.00744 0.009,1.51114 0.001,0.29178 5.1e-4,0.58364 0.008,0.87534 0,0 -1.20332,0.61313 -1.20332,0.61313 z"
       inkscape:connector-curvature="0" />
    <path
       style="fill:#fcb836;fill-opacity:1;stroke:#fcb836;stroke-width:2.21200013;stroke-miterlimit:4;stroke-dasharray:none;stroke-opacity:1"
       id="path5063"
       d="m -297.61448,121.55006 c 0.0574,-1.00353 0.0383,-2.00899 -0.0264,-3.01147 0,0 1.1568,-0.59564 1.1568,-0.59564 v 0 c 0.0214,1.0009 0.0127,2.00244 0.056,3.00261 0,0 -1.18639,0.6045 -1.18639,0.6045 z"
       inkscape:connector-curvature="0" />
  </g>
</svg>
